<mxfile host="app.diagrams.net" modified="2022-11-29T03:16:02.857Z" agent="5.0 (Macintosh; Intel Mac OS X 10_15_7) AppleWebKit/537.36 (KHTML, like Gecko) Chrome/107.0.0.0 Safari/537.36" version="20.6.0" etag="dzBGNZ_aOiU_hhxMQtcP" type="github">
  <diagram id="DokU4JoQJMeZVV-qqObn" name="第 1 页">
    <mxGraphModel dx="1186" dy="813" grid="1" gridSize="10" guides="1" tooltips="1" connect="1" arrows="1" fold="1" page="1" pageScale="1" pageWidth="827" pageHeight="1169" math="0" shadow="0">
      <root>
        <mxCell id="0" />
        <mxCell id="1" parent="0" />
        <mxCell id="ZBsQYq_khlkzpqfIreq4-3" style="edgeStyle=orthogonalEdgeStyle;rounded=0;orthogonalLoop=1;jettySize=auto;html=1;exitX=1;exitY=0.5;exitDx=0;exitDy=0;" edge="1" parent="1" source="ZBsQYq_khlkzpqfIreq4-1" target="ZBsQYq_khlkzpqfIreq4-2">
          <mxGeometry relative="1" as="geometry" />
        </mxCell>
        <mxCell id="ZBsQYq_khlkzpqfIreq4-1" value="" style="whiteSpace=wrap;html=1;aspect=fixed;" vertex="1" parent="1">
          <mxGeometry x="290" y="190" width="80" height="80" as="geometry" />
        </mxCell>
        <mxCell id="ZBsQYq_khlkzpqfIreq4-2" value="" style="shape=step;perimeter=stepPerimeter;whiteSpace=wrap;html=1;fixedSize=1;" vertex="1" parent="1">
          <mxGeometry x="570" y="190" width="120" height="80" as="geometry" />
        </mxCell>
      </root>
    </mxGraphModel>
  </diagram>
</mxfile>
